REM DIRINDEX 1\2\4\8,1\2\4\9,1\2\4\10,1\2\5\11,1\2\5\12,1\2\5\13,1\2\5\14,1\2\5\15,1\3\6\16,1\3\6\17,1\3\6\18,1\3\7\19,1\3\7\20,1\3\7\21,1\3\7\22,1\3\7\23
REM DIRNAME "folder01","folder02","folder03","folder04","folder05","folder06","folder07","folder08","folder09","folder10","folder11","folder12","folder13","folder14","folder15","folder16","folder17","folder18","folder19","folder20","folder21","folder22","folder23"
TITLE ""
FILE "LR_black_phrase_B02.mp3" MP3
  TRACK 01 AUDIO
    TITLE "0:"
    INDEX 01 00:00:00
  TRACK 02 AUDIO
    TITLE "19:cjc171_12651"
    INDEX 01 00:00:14
  TRACK 03 AUDIO
    TITLE "0:"
    INDEX 01 00:01:33
  TRACK 04 AUDIO
    TITLE "20:cjc171_12652"
    INDEX 01 00:01:72
  TRACK 05 AUDIO
    TITLE "0:"
    INDEX 01 00:04:73
  TRACK 06 AUDIO
    TITLE "21:cjc171_12653"
    INDEX 01 00:05:72
  TRACK 07 AUDIO
    TITLE "0:"
    INDEX 01 00:08:69
  TRACK 08 AUDIO
    TITLE "22:cjc171_12654"
    INDEX 01 00:09:33
  TRACK 09 AUDIO
    TITLE "0:"
    INDEX 01 00:11:65
  TRACK 10 AUDIO
    TITLE "23:cjc171_12655"
    INDEX 01 00:12:12
  TRACK 11 AUDIO
    TITLE "0:"
    INDEX 01 00:14:46
  TRACK 12 AUDIO
    TITLE "19:cjc171_12656"
    INDEX 01 00:15:43
  TRACK 13 AUDIO
    TITLE "0:"
    INDEX 01 00:16:60
  TRACK 14 AUDIO
    TITLE "20:cjc171_12657"
    INDEX 01 00:17:24
  TRACK 15 AUDIO
    TITLE "0:"
    INDEX 01 00:20:03
  TRACK 16 AUDIO
    TITLE "21:cjc171_12658"
    INDEX 01 00:21:03
  TRACK 17 AUDIO
    TITLE "0:"
    INDEX 01 00:22:67
  TRACK 18 AUDIO
    TITLE "22:cjc171_12659"
    INDEX 01 00:23:29
  TRACK 19 AUDIO
    TITLE "0:"
    INDEX 01 00:25:12
  TRACK 20 AUDIO
    TITLE "23:cjc171_12660"
    INDEX 01 00:25:40
  TRACK 21 AUDIO
    TITLE "0:"
    INDEX 01 00:27:21
  TRACK 22 AUDIO
    TITLE "19:cjc171_12661"
    INDEX 01 00:28:24
  TRACK 23 AUDIO
    TITLE "0:"
    INDEX 01 00:29:45
  TRACK 24 AUDIO
    TITLE "20:cjc171_12662"
    INDEX 01 00:30:07
  TRACK 25 AUDIO
    TITLE "0:"
    INDEX 01 00:31:44
  TRACK 26 AUDIO
    TITLE "21:cjc171_12663"
    INDEX 01 00:32:44
  TRACK 27 AUDIO
    TITLE "0:"
    INDEX 01 00:34:52
  TRACK 28 AUDIO
    TITLE "22:cjc171_12664"
    INDEX 01 00:35:15
  TRACK 29 AUDIO
    TITLE "0:"
    INDEX 01 00:37:04
  TRACK 30 AUDIO
    TITLE "23:cjc171_12665"
    INDEX 01 00:37:33
  TRACK 31 AUDIO
    TITLE "0:"
    INDEX 01 00:39:24
  TRACK 32 AUDIO
    TITLE "19:cjc171_12666"
    INDEX 01 00:40:24
  TRACK 33 AUDIO
    TITLE "0:"
    INDEX 01 00:41:46
  TRACK 34 AUDIO
    TITLE "20:cjc171_12667"
    INDEX 01 00:42:11
  TRACK 35 AUDIO
    TITLE "0:"
    INDEX 01 00:44:59
  TRACK 36 AUDIO
    TITLE "21:cjc171_12668"
    INDEX 01 00:45:56
  TRACK 37 AUDIO
    TITLE "0:"
    INDEX 01 00:48:43
  TRACK 38 AUDIO
    TITLE "22:cjc171_12669"
    INDEX 01 00:49:09
  TRACK 39 AUDIO
    TITLE "0:"
    INDEX 01 00:51:61
  TRACK 40 AUDIO
    TITLE "23:cjc171_12670"
    INDEX 01 00:52:15
  TRACK 41 AUDIO
    TITLE "0:"
    INDEX 01 00:54:69
  TRACK 42 AUDIO
    TITLE "19:cjc171_12671"
    INDEX 01 00:55:72
  TRACK 43 AUDIO
    TITLE "0:"
    INDEX 01 00:57:04
  TRACK 44 AUDIO
    TITLE "20:cjc171_12672"
    INDEX 01 00:57:38
  TRACK 45 AUDIO
    TITLE "0:"
    INDEX 01 00:59:48
  TRACK 46 AUDIO
    TITLE "21:cjc171_12673"
    INDEX 01 01:00:48
  TRACK 47 AUDIO
    TITLE "0:"
    INDEX 01 01:02:47
  TRACK 48 AUDIO
    TITLE "22:cjc171_12674"
    INDEX 01 01:03:09
  TRACK 49 AUDIO
    TITLE "0:"
    INDEX 01 01:04:73
  TRACK 50 AUDIO
    TITLE "23:cjc171_12675"
    INDEX 01 01:05:25
  TRACK 51 AUDIO
    TITLE "0:"
    INDEX 01 01:07:13
  TRACK 52 AUDIO
    TITLE "19:cjc171_12676"
    INDEX 01 01:08:14
  TRACK 53 AUDIO
    TITLE "0:"
    INDEX 01 01:09:29
  TRACK 54 AUDIO
    TITLE "20:cjc171_12677"
    INDEX 01 01:09:68
  TRACK 55 AUDIO
    TITLE "0:"
    INDEX 01 01:12:18
  TRACK 56 AUDIO
    TITLE "21:cjc171_12678"
    INDEX 01 01:13:17
  TRACK 57 AUDIO
    TITLE "0:"
    INDEX 01 01:15:57
  TRACK 58 AUDIO
    TITLE "22:cjc171_12679"
    INDEX 01 01:16:15
  TRACK 59 AUDIO
    TITLE "0:"
    INDEX 01 01:18:52
  TRACK 60 AUDIO
    TITLE "23:cjc171_12680"
    INDEX 01 01:18:67
  TRACK 61 AUDIO
    TITLE "0:"
    INDEX 01 01:21:30
  TRACK 62 AUDIO
    TITLE "19:cjc171_12681"
    INDEX 01 01:22:28
  TRACK 63 AUDIO
    TITLE "0:"
    INDEX 01 01:23:63
  TRACK 64 AUDIO
    TITLE "20:cjc171_12682"
    INDEX 01 01:24:27
  TRACK 65 AUDIO
    TITLE "0:"
    INDEX 01 01:25:69
  TRACK 66 AUDIO
    TITLE "21:cjc171_12683"
    INDEX 01 01:26:67
  TRACK 67 AUDIO
    TITLE "0:"
    INDEX 01 01:29:06
  TRACK 68 AUDIO
    TITLE "22:cjc171_12684"
    INDEX 01 01:29:45
  TRACK 69 AUDIO
    TITLE "0:"
    INDEX 01 01:31:54
  TRACK 70 AUDIO
    TITLE "23:cjc171_12685"
    INDEX 01 01:32:12
  TRACK 71 AUDIO
    TITLE "0:"
    INDEX 01 01:34:19
  TRACK 72 AUDIO
    TITLE "19:cjc171_12686"
    INDEX 01 01:35:25
  TRACK 73 AUDIO
    TITLE "0:"
    INDEX 01 01:36:42
  TRACK 74 AUDIO
    TITLE "20:cjc171_12687"
    INDEX 01 01:37:08
  TRACK 75 AUDIO
    TITLE "0:"
    INDEX 01 01:38:17
  TRACK 76 AUDIO
    TITLE "21:cjc171_12688"
    INDEX 01 01:39:16
  TRACK 77 AUDIO
    TITLE "0:"
    INDEX 01 01:42:21
  TRACK 78 AUDIO
    TITLE "22:cjc171_12689"
    INDEX 01 01:42:58
  TRACK 79 AUDIO
    TITLE "0:"
    INDEX 01 01:45:39
  TRACK 80 AUDIO
    TITLE "23:cjc171_12690"
    INDEX 01 01:45:70
  TRACK 81 AUDIO
    TITLE "0:"
    INDEX 01 01:48:51
  TRACK 82 AUDIO
    TITLE "19:cjc171_12691"
    INDEX 01 01:49:58
  TRACK 83 AUDIO
    TITLE "0:"
    INDEX 01 01:50:73
  TRACK 84 AUDIO
    TITLE "20:cjc171_12692"
    INDEX 01 01:51:37
  TRACK 85 AUDIO
    TITLE "0:"
    INDEX 01 01:54:28
  TRACK 86 AUDIO
    TITLE "21:cjc171_12693"
    INDEX 01 01:55:33
  TRACK 87 AUDIO
    TITLE "0:"
    INDEX 01 01:57:36
  TRACK 88 AUDIO
    TITLE "22:cjc171_12694"
    INDEX 01 01:58:00
  TRACK 89 AUDIO
    TITLE "0:"
    INDEX 01 02:00:01
  TRACK 90 AUDIO
    TITLE "23:cjc171_12695"
    INDEX 01 02:00:30
  TRACK 91 AUDIO
    TITLE "0:"
    INDEX 01 02:02:31
  TRACK 92 AUDIO
    TITLE "19:cjc171_12696"
    INDEX 01 02:03:35
  TRACK 93 AUDIO
    TITLE "0:"
    INDEX 01 02:04:50
  TRACK 94 AUDIO
    TITLE "20:cjc171_12697"
    INDEX 01 02:05:18
  TRACK 95 AUDIO
    TITLE "0:"
    INDEX 01 02:06:49
  TRACK 96 AUDIO
    TITLE "21:cjc171_12698"
    INDEX 01 02:07:48
  TRACK 97 AUDIO
    TITLE "0:"
    INDEX 01 02:10:35
  TRACK 98 AUDIO
    TITLE "22:cjc171_12699"
    INDEX 01 02:10:72
  TRACK 99 AUDIO
    TITLE "0:"
    INDEX 01 02:14:32
  TRACK 100 AUDIO
    TITLE "23:cjc171_12700"
    INDEX 01 02:14:58
  TRACK 101 AUDIO
    TITLE "0:"
    INDEX 01 02:18:19
  TRACK 102 AUDIO
    TITLE "19:cjc171_12701"
    INDEX 01 02:19:20
  TRACK 103 AUDIO
    TITLE "0:"
    INDEX 01 02:20:29
  TRACK 104 AUDIO
    TITLE "20:cjc171_12702"
    INDEX 01 02:20:68
  TRACK 105 AUDIO
    TITLE "0:"
    INDEX 01 02:23:18
  TRACK 106 AUDIO
    TITLE "21:cjc171_12703"
    INDEX 01 02:24:17
  TRACK 107 AUDIO
    TITLE "0:"
    INDEX 01 02:26:36
  TRACK 108 AUDIO
    TITLE "22:cjc171_12704"
    INDEX 01 02:27:00
  TRACK 109 AUDIO
    TITLE "0:"
    INDEX 01 02:29:05
  TRACK 110 AUDIO
    TITLE "23:cjc171_12705"
    INDEX 01 02:29:34
  TRACK 111 AUDIO
    TITLE "0:"
    INDEX 01 02:31:43
  TRACK 112 AUDIO
    TITLE "19:cjc171_12706"
    INDEX 01 02:32:48
  TRACK 113 AUDIO
    TITLE "0:"
    INDEX 01 02:34:00
  TRACK 114 AUDIO
    TITLE "20:cjc171_12707"
    INDEX 01 02:34:39
  TRACK 115 AUDIO
    TITLE "0:"
    INDEX 01 02:36:01
  TRACK 116 AUDIO
    TITLE "21:cjc171_12708"
    INDEX 01 02:37:00
  TRACK 117 AUDIO
    TITLE "0:"
    INDEX 01 02:39:01
  TRACK 118 AUDIO
    TITLE "22:cjc171_12709"
    INDEX 01 02:39:44
  TRACK 119 AUDIO
    TITLE "0:"
    INDEX 01 02:42:17
  TRACK 120 AUDIO
    TITLE "23:cjc171_12710"
    INDEX 01 02:42:48
  TRACK 121 AUDIO
    TITLE "0:"
    INDEX 01 02:45:25
  TRACK 122 AUDIO
    TITLE "19:cjc171_12711"
    INDEX 01 02:46:31
  TRACK 123 AUDIO
    TITLE "0:"
    INDEX 01 02:47:52
  TRACK 124 AUDIO
    TITLE "20:cjc171_12712"
    INDEX 01 02:48:18
  TRACK 125 AUDIO
    TITLE "0:"
    INDEX 01 02:49:37
  TRACK 126 AUDIO
    TITLE "21:cjc171_12713"
    INDEX 01 02:50:38
  TRACK 127 AUDIO
    TITLE "0:"
    INDEX 01 02:52:55
  TRACK 128 AUDIO
    TITLE "22:cjc171_12714"
    INDEX 01 02:53:17
  TRACK 129 AUDIO
    TITLE "0:"
    INDEX 01 02:55:37
  TRACK 130 AUDIO
    TITLE "23:cjc171_12715"
    INDEX 01 02:55:69
  TRACK 131 AUDIO
    TITLE "0:"
    INDEX 01 02:58:12
  TRACK 132 AUDIO
    TITLE "19:cjc171_12716"
    INDEX 01 02:59:17
  TRACK 133 AUDIO
    TITLE "0:"
    INDEX 01 03:00:40
  TRACK 134 AUDIO
    TITLE "20:cjc171_12717"
    INDEX 01 03:01:05
  TRACK 135 AUDIO
    TITLE "0:"
    INDEX 01 03:03:64
  TRACK 136 AUDIO
    TITLE "21:cjc171_12718"
    INDEX 01 03:04:64
  TRACK 137 AUDIO
    TITLE "0:"
    INDEX 01 03:07:17
  TRACK 138 AUDIO
    TITLE "22:cjc171_12719"
    INDEX 01 03:07:54
  TRACK 139 AUDIO
    TITLE "0:"
    INDEX 01 03:09:63
  TRACK 140 AUDIO
    TITLE "23:cjc171_12720"
    INDEX 01 03:10:17
  TRACK 141 AUDIO
    TITLE "0:"
    INDEX 01 03:12:26
  TRACK 142 AUDIO
    TITLE "19:cjc171_12721"
    INDEX 01 03:13:29
  TRACK 143 AUDIO
    TITLE "0:"
    INDEX 01 03:14:62
  TRACK 144 AUDIO
    TITLE "20:cjc171_12722"
    INDEX 01 03:15:24
  TRACK 145 AUDIO
    TITLE "0:"
    INDEX 01 03:16:45
  TRACK 146 AUDIO
    TITLE "21:cjc171_12723"
    INDEX 01 03:17:45
  TRACK 147 AUDIO
    TITLE "0:"
    INDEX 01 03:19:52
  TRACK 148 AUDIO
    TITLE "22:cjc171_12724"
    INDEX 01 03:20:18
  TRACK 149 AUDIO
    TITLE "0:"
    INDEX 01 03:22:19
  TRACK 150 AUDIO
    TITLE "23:cjc171_12725"
    INDEX 01 03:22:48
  TRACK 151 AUDIO
    TITLE "0:"
    INDEX 01 03:24:47
  TRACK 152 AUDIO
    TITLE "19:cjc171_12726"
    INDEX 01 03:25:52
  TRACK 153 AUDIO
    TITLE "0:"
    INDEX 01 03:26:57
  TRACK 154 AUDIO
    TITLE "20:cjc171_12727"
    INDEX 01 03:27:28
  TRACK 155 AUDIO
    TITLE "0:"
    INDEX 01 03:29:07
  TRACK 156 AUDIO
    TITLE "21:cjc171_12728"
    INDEX 01 03:30:08
  TRACK 157 AUDIO
    TITLE "0:"
    INDEX 01 03:32:31
  TRACK 158 AUDIO
    TITLE "22:cjc171_12729"
    INDEX 01 03:32:70
  TRACK 159 AUDIO
    TITLE "0:"
    INDEX 01 03:34:49
  TRACK 160 AUDIO
    TITLE "23:cjc171_12730"
    INDEX 01 03:35:05
  TRACK 161 AUDIO
    TITLE "0:"
    INDEX 01 03:36:60
  TRACK 162 AUDIO
    TITLE "19:cjc171_12731"
    INDEX 01 03:37:65
  TRACK 163 AUDIO
    TITLE "0:"
    INDEX 01 03:39:09
  TRACK 164 AUDIO
    TITLE "20:cjc171_12732"
    INDEX 01 03:39:46
  TRACK 165 AUDIO
    TITLE "0:"
    INDEX 01 03:42:33
  TRACK 166 AUDIO
    TITLE "21:cjc171_12733"
    INDEX 01 03:43:32
  TRACK 167 AUDIO
    TITLE "0:"
    INDEX 01 03:45:45
  TRACK 168 AUDIO
    TITLE "22:cjc171_12734"
    INDEX 01 03:46:09
  TRACK 169 AUDIO
    TITLE "0:"
    INDEX 01 03:48:45
  TRACK 170 AUDIO
    TITLE "23:cjc171_12735"
    INDEX 01 03:48:73
  TRACK 171 AUDIO
    TITLE "0:"
    INDEX 01 03:51:34
  TRACK 172 AUDIO
    TITLE "19:cjc171_12736"
    INDEX 01 03:52:35
  TRACK 173 AUDIO
    TITLE "0:"
    INDEX 01 03:53:58
  TRACK 174 AUDIO
    TITLE "20:cjc171_12737"
    INDEX 01 03:54:22
  TRACK 175 AUDIO
    TITLE "0:"
    INDEX 01 03:56:27
  TRACK 176 AUDIO
    TITLE "21:cjc171_12738"
    INDEX 01 03:57:29
  TRACK 177 AUDIO
    TITLE "0:"
    INDEX 01 03:59:51
  TRACK 178 AUDIO
    TITLE "22:cjc171_12739"
    INDEX 01 04:00:15
  TRACK 179 AUDIO
    TITLE "0:"
    INDEX 01 04:02:55
  TRACK 180 AUDIO
    TITLE "23:cjc171_12740"
    INDEX 01 04:03:10
  TRACK 181 AUDIO
    TITLE "0:"
    INDEX 01 04:05:52
  TRACK 182 AUDIO
    TITLE "19:cjc171_12741"
    INDEX 01 04:06:55
  TRACK 183 AUDIO
    TITLE "0:"
    INDEX 01 04:08:05
  TRACK 184 AUDIO
    TITLE "20:cjc171_12742"
    INDEX 01 04:08:44
  TRACK 185 AUDIO
    TITLE "0:"
    INDEX 01 04:10:57
  TRACK 186 AUDIO
    TITLE "21:cjc171_12743"
    INDEX 01 04:11:54
  TRACK 187 AUDIO
    TITLE "0:"
    INDEX 01 04:13:35
  TRACK 188 AUDIO
    TITLE "22:cjc171_12744"
    INDEX 01 04:14:00
  TRACK 189 AUDIO
    TITLE "0:"
    INDEX 01 04:15:58
  TRACK 190 AUDIO
    TITLE "23:cjc171_12745"
    INDEX 01 04:16:12
  TRACK 191 AUDIO
    TITLE "0:"
    INDEX 01 04:17:70
  TRACK 192 AUDIO
    TITLE "19:cjc171_12746"
    INDEX 01 04:19:01
  TRACK 193 AUDIO
    TITLE "0:"
    INDEX 01 04:20:36
  TRACK 194 AUDIO
    TITLE "20:cjc171_12747"
    INDEX 01 04:21:00
  TRACK 195 AUDIO
    TITLE "0:"
    INDEX 01 04:22:13
  TRACK 196 AUDIO
    TITLE "21:cjc171_12748"
    INDEX 01 04:23:12
  TRACK 197 AUDIO
    TITLE "0:"
    INDEX 01 04:24:49
  TRACK 198 AUDIO
    TITLE "22:cjc171_12749"
    INDEX 01 04:25:13
  TRACK 199 AUDIO
    TITLE "0:"
    INDEX 01 04:27:22
  TRACK 200 AUDIO
    TITLE "23:cjc171_12750"
    INDEX 01 04:27:53
  TRACK 201 AUDIO
    TITLE "0:"
    INDEX 01 04:29:64
  TRACK 202 AUDIO
    TITLE "19:cjc171_12751"
    INDEX 01 04:30:67
  TRACK 203 AUDIO
    TITLE "0:"
    INDEX 01 04:31:69
  TRACK 204 AUDIO
    TITLE "20:cjc171_12752"
    INDEX 01 04:32:33
  TRACK 205 AUDIO
    TITLE "0:"
    INDEX 01 04:33:56
  TRACK 206 AUDIO
    TITLE "21:cjc171_12753"
    INDEX 01 04:34:51
  TRACK 207 AUDIO
    TITLE "0:"
    INDEX 01 04:36:72
  TRACK 208 AUDIO
    TITLE "22:cjc171_12754"
    INDEX 01 04:37:36
  TRACK 209 AUDIO
    TITLE "0:"
    INDEX 01 04:39:51
  TRACK 210 AUDIO
    TITLE "23:cjc171_12755"
    INDEX 01 04:40:05
  TRACK 211 AUDIO
    TITLE "0:"
    INDEX 01 04:42:21
  TRACK 212 AUDIO
    TITLE "19:cjc171_12756"
    INDEX 01 04:43:25
  TRACK 213 AUDIO
    TITLE "0:"
    INDEX 01 04:44:54
  TRACK 214 AUDIO
    TITLE "20:cjc171_12757"
    INDEX 01 04:45:14
  TRACK 215 AUDIO
    TITLE "0:"
    INDEX 01 04:47:21
  TRACK 216 AUDIO
    TITLE "21:cjc171_12758"
    INDEX 01 04:48:22
  TRACK 217 AUDIO
    TITLE "0:"
    INDEX 01 04:49:70
  TRACK 218 AUDIO
    TITLE "22:cjc171_12759"
    INDEX 01 04:50:31
  TRACK 219 AUDIO
    TITLE "0:"
    INDEX 01 04:52:30
  TRACK 220 AUDIO
    TITLE "23:cjc171_12760"
    INDEX 01 04:52:55
  TRACK 221 AUDIO
    TITLE "0:"
    INDEX 01 04:54:56
  TRACK 222 AUDIO
    TITLE "19:cjc171_12761"
    INDEX 01 04:55:59
  TRACK 223 AUDIO
    TITLE "0:"
    INDEX 01 04:57:01
  TRACK 224 AUDIO
    TITLE "20:cjc171_12762"
    INDEX 01 04:57:43
  TRACK 225 AUDIO
    TITLE "0:"
    INDEX 01 05:00:00
  TRACK 226 AUDIO
    TITLE "21:cjc171_12763"
    INDEX 01 05:00:72
  TRACK 227 AUDIO
    TITLE "0:"
    INDEX 01 05:02:57
  TRACK 228 AUDIO
    TITLE "22:cjc171_12764"
    INDEX 01 05:03:22
  TRACK 229 AUDIO
    TITLE "0:"
    INDEX 01 05:05:46
  TRACK 230 AUDIO
    TITLE "23:cjc171_12765"
    INDEX 01 05:06:00
  TRACK 231 AUDIO
    TITLE "0:"
    INDEX 01 05:08:23
  TRACK 232 AUDIO
    TITLE "19:cjc171_12766"
    INDEX 01 05:09:26
  TRACK 233 AUDIO
    TITLE "0:"
    INDEX 01 05:10:49
  TRACK 234 AUDIO
    TITLE "20:cjc171_12767"
    INDEX 01 05:11:15
  TRACK 235 AUDIO
    TITLE "0:"
    INDEX 01 05:14:66
  TRACK 236 AUDIO
    TITLE "21:cjc171_12768"
    INDEX 01 05:15:64
  TRACK 237 AUDIO
    TITLE "0:"
    INDEX 01 05:17:71
  TRACK 238 AUDIO
    TITLE "22:cjc171_12769"
    INDEX 01 05:18:35
  TRACK 239 AUDIO
    TITLE "0:"
    INDEX 01 05:20:48
  TRACK 240 AUDIO
    TITLE "23:cjc171_12770"
    INDEX 01 05:21:02
  TRACK 241 AUDIO
    TITLE "0:"
    INDEX 01 05:23:16
  TRACK 242 AUDIO
    TITLE "19:cjc171_12771"
    INDEX 01 05:24:20
  TRACK 243 AUDIO
    TITLE "0:"
    INDEX 01 05:25:33
  TRACK 244 AUDIO
    TITLE "20:cjc171_12772"
    INDEX 01 05:25:64
  TRACK 245 AUDIO
    TITLE "0:"
    INDEX 01 05:29:68
  TRACK 246 AUDIO
    TITLE "21:cjc171_12773"
    INDEX 01 05:30:71
  TRACK 247 AUDIO
    TITLE "0:"
    INDEX 01 05:33:09
  TRACK 248 AUDIO
    TITLE "22:cjc171_12774"
    INDEX 01 05:33:48
  TRACK 249 AUDIO
    TITLE "0:"
    INDEX 01 05:35:49
  TRACK 250 AUDIO
    TITLE "23:cjc171_12775"
    INDEX 01 05:36:07
  TRACK 251 AUDIO
    TITLE "0:"
    INDEX 01 05:38:08
  TRACK 252 AUDIO
    TITLE "19:cjc171_12776"
    INDEX 01 05:39:12
  TRACK 253 AUDIO
    TITLE "0:"
    INDEX 01 05:40:21
  TRACK 254 AUDIO
    TITLE "20:cjc171_12777"
    INDEX 01 05:40:66
  TRACK 255 AUDIO
    TITLE "0:"
    INDEX 01 05:43:05
  TRACK 256 AUDIO
    TITLE "21:cjc171_12778"
    INDEX 01 05:43:74
  TRACK 257 AUDIO
    TITLE "0:"
    INDEX 01 05:45:46
  TRACK 258 AUDIO
    TITLE "22:cjc171_12779"
    INDEX 01 05:46:06
  TRACK 259 AUDIO
    TITLE "0:"
    INDEX 01 05:47:72
  TRACK 260 AUDIO
    TITLE "23:cjc171_12780"
    INDEX 01 05:48:28
  TRACK 261 AUDIO
    TITLE "0:"
    INDEX 01 05:50:17
  TRACK 262 AUDIO
    TITLE "19:cjc171_12781"
    INDEX 01 05:51:21
  TRACK 263 AUDIO
    TITLE "0:"
    INDEX 01 05:52:42
  TRACK 264 AUDIO
    TITLE "20:cjc171_12782"
    INDEX 01 05:53:08
  TRACK 265 AUDIO
    TITLE "0:"
    INDEX 01 05:54:44
  TRACK 266 AUDIO
    TITLE "21:cjc171_12783"
    INDEX 01 05:55:46
  TRACK 267 AUDIO
    TITLE "0:"
    INDEX 01 05:58:19
  TRACK 268 AUDIO
    TITLE "22:cjc171_12784"
    INDEX 01 05:58:58
  TRACK 269 AUDIO
    TITLE "0:"
    INDEX 01 06:00:74
  TRACK 270 AUDIO
    TITLE "23:cjc171_12785"
    INDEX 01 06:01:29
  TRACK 271 AUDIO
    TITLE "0:"
    INDEX 01 06:03:47
  TRACK 272 AUDIO
    TITLE "19:cjc171_12786"
    INDEX 01 06:04:53
  TRACK 273 AUDIO
    TITLE "0:"
    INDEX 01 06:06:01
  TRACK 274 AUDIO
    TITLE "20:cjc171_12787"
    INDEX 01 06:06:42
  TRACK 275 AUDIO
    TITLE "0:"
    INDEX 01 06:09:17
  TRACK 276 AUDIO
    TITLE "21:cjc171_12788"
    INDEX 01 06:10:16
  TRACK 277 AUDIO
    TITLE "0:"
    INDEX 01 06:13:12
  TRACK 278 AUDIO
    TITLE "22:cjc171_12789"
    INDEX 01 06:13:46
  TRACK 279 AUDIO
    TITLE "0:"
    INDEX 01 06:16:56
  TRACK 280 AUDIO
    TITLE "23:cjc171_12790"
    INDEX 01 06:17:02
  TRACK 281 AUDIO
    TITLE "0:"
    INDEX 01 06:20:14
  TRACK 282 AUDIO
    TITLE "19:cjc171_12791"
    INDEX 01 06:21:10
  TRACK 283 AUDIO
    TITLE "0:"
    INDEX 01 06:22:19
  TRACK 284 AUDIO
    TITLE "20:cjc171_12792"
    INDEX 01 06:22:55
  TRACK 285 AUDIO
    TITLE "0:"
    INDEX 01 06:25:29
  TRACK 286 AUDIO
    TITLE "21:cjc171_12793"
    INDEX 01 06:26:27
  TRACK 287 AUDIO
    TITLE "0:"
    INDEX 01 06:28:73
  TRACK 288 AUDIO
    TITLE "22:cjc171_12794"
    INDEX 01 06:29:39
  TRACK 289 AUDIO
    TITLE "0:"
    INDEX 01 06:32:18
  TRACK 290 AUDIO
    TITLE "23:cjc171_12795"
    INDEX 01 06:32:47
  TRACK 291 AUDIO
    TITLE "0:"
    INDEX 01 06:35:24
  TRACK 292 AUDIO
    TITLE "19:cjc171_12796"
    INDEX 01 06:36:23
  TRACK 293 AUDIO
    TITLE "0:"
    INDEX 01 06:37:33
  TRACK 294 AUDIO
    TITLE "20:cjc171_12797"
    INDEX 01 06:37:72
  TRACK 295 AUDIO
    TITLE "0:"
    INDEX 01 06:40:43
  TRACK 296 AUDIO
    TITLE "21:cjc171_12798"
    INDEX 01 06:41:42
  TRACK 297 AUDIO
    TITLE "0:"
    INDEX 01 06:43:53
  TRACK 298 AUDIO
    TITLE "22:cjc171_12799"
    INDEX 01 06:44:13
  TRACK 299 AUDIO
    TITLE "0:"
    INDEX 01 06:46:31
  TRACK 300 AUDIO
    TITLE "23:cjc171_12800"
    INDEX 01 06:46:55
  TRACK 301 AUDIO
    TITLE "0:"
    INDEX 01 06:48:73
